<svg width="688" height="75" viewBox="0 0 688 75" fill="none" xmlns="http://www.w3.org/2000/svg">
<g filter="url(#filter0_d_2_223)">
<rect x="4" width="328" height="67" rx="24" fill="#0A3871"/>
<path d="M132.968 31H131.559C131.476 30.5947 131.33 30.2386 131.121 29.9318C130.917 29.625 130.667 29.3674 130.371 29.1591C130.08 28.947 129.756 28.7879 129.4 28.6818C129.044 28.5758 128.673 28.5227 128.286 28.5227C127.582 28.5227 126.943 28.7008 126.371 29.0568C125.803 29.4129 125.351 29.9375 125.013 30.6307C124.68 31.3239 124.513 32.1742 124.513 33.1818C124.513 34.1894 124.68 35.0398 125.013 35.733C125.351 36.4261 125.803 36.9508 126.371 37.3068C126.943 37.6629 127.582 37.8409 128.286 37.8409C128.673 37.8409 129.044 37.7879 129.4 37.6818C129.756 37.5758 130.08 37.4186 130.371 37.2102C130.667 36.9981 130.917 36.7386 131.121 36.4318C131.33 36.1212 131.476 35.7652 131.559 35.3636H132.968C132.862 35.9583 132.669 36.4905 132.388 36.9602C132.108 37.4299 131.76 37.8295 131.343 38.1591C130.926 38.4848 130.459 38.733 129.94 38.9034C129.424 39.0739 128.873 39.1591 128.286 39.1591C127.294 39.1591 126.411 38.9167 125.638 38.4318C124.866 37.947 124.258 37.2576 123.815 36.3636C123.371 35.4697 123.15 34.4091 123.15 33.1818C123.15 31.9545 123.371 30.8939 123.815 30C124.258 29.1061 124.866 28.4167 125.638 27.9318C126.411 27.447 127.294 27.2045 128.286 27.2045C128.873 27.2045 129.424 27.2898 129.94 27.4602C130.459 27.6307 130.926 27.8807 131.343 28.2102C131.76 28.536 132.108 28.9337 132.388 29.4034C132.669 29.8693 132.862 30.4015 132.968 31ZM135.063 39V30.2727H136.359V31.5909H136.45C136.609 31.1591 136.897 30.8087 137.313 30.5398C137.73 30.2708 138.2 30.1364 138.722 30.1364C138.821 30.1364 138.944 30.1383 139.092 30.142C139.239 30.1458 139.351 30.1515 139.427 30.1591V31.5227C139.381 31.5114 139.277 31.4943 139.114 31.4716C138.955 31.4451 138.787 31.4318 138.609 31.4318C138.184 31.4318 137.806 31.5208 137.472 31.6989C137.143 31.8731 136.881 32.1155 136.688 32.4261C136.499 32.733 136.404 33.0833 136.404 33.4773V39H135.063ZM141.016 39V30.2727H142.357V39H141.016ZM141.698 28.8182C141.437 28.8182 141.211 28.7292 141.022 28.5511C140.836 28.3731 140.744 28.1591 140.744 27.9091C140.744 27.6591 140.836 27.4451 141.022 27.267C141.211 27.089 141.437 27 141.698 27C141.96 27 142.183 27.089 142.369 27.267C142.558 27.4451 142.653 27.6591 142.653 27.9091C142.653 28.1591 142.558 28.3731 142.369 28.5511C142.183 28.7292 141.96 28.8182 141.698 28.8182ZM144.813 42.2727V30.2727H146.109V31.6591H146.268C146.366 31.5076 146.503 31.3144 146.677 31.0795C146.855 30.8409 147.109 30.6288 147.438 30.4432C147.772 30.2538 148.222 30.1591 148.79 30.1591C149.525 30.1591 150.173 30.3428 150.734 30.7102C151.294 31.0777 151.732 31.5985 152.046 32.2727C152.361 32.947 152.518 33.7424 152.518 34.6591C152.518 35.5833 152.361 36.3845 152.046 37.0625C151.732 37.7367 151.296 38.2595 150.739 38.6307C150.183 38.9981 149.54 39.1818 148.813 39.1818C148.253 39.1818 147.804 39.089 147.467 38.9034C147.129 38.714 146.87 38.5 146.688 38.2614C146.506 38.0189 146.366 37.8182 146.268 37.6591H146.154V42.2727H144.813ZM146.131 34.6364C146.131 35.2955 146.228 35.8769 146.421 36.3807C146.614 36.8807 146.897 37.2727 147.268 37.5568C147.639 37.8371 148.094 37.9773 148.631 37.9773C149.192 37.9773 149.66 37.8295 150.035 37.5341C150.414 37.2348 150.698 36.8333 150.887 36.3295C151.08 35.822 151.177 35.2576 151.177 34.6364C151.177 34.0227 151.082 33.4697 150.893 32.9773C150.707 32.4811 150.425 32.089 150.046 31.8011C149.671 31.5095 149.2 31.3636 148.631 31.3636C148.086 31.3636 147.628 31.5019 147.256 31.7784C146.885 32.0511 146.605 32.4337 146.415 32.9261C146.226 33.4148 146.131 33.9848 146.131 34.6364ZM158.359 30.2727V31.4091H153.836V30.2727H158.359ZM155.154 28.1818H156.495V36.5C156.495 36.8788 156.55 37.1629 156.66 37.3523C156.773 37.5379 156.917 37.6629 157.092 37.7273C157.27 37.7879 157.457 37.8182 157.654 37.8182C157.802 37.8182 157.923 37.8106 158.018 37.7955C158.112 37.7765 158.188 37.7614 158.245 37.75L158.518 38.9545C158.427 38.9886 158.3 39.0227 158.137 39.0568C157.974 39.0947 157.768 39.1136 157.518 39.1136C157.139 39.1136 156.768 39.0322 156.404 38.8693C156.044 38.7064 155.745 38.4583 155.506 38.125C155.272 37.7917 155.154 37.3712 155.154 36.8636V28.1818ZM163.827 39.1818C163.04 39.1818 162.348 38.9943 161.754 38.6193C161.163 38.2443 160.701 37.7197 160.367 37.0455C160.038 36.3712 159.873 35.5833 159.873 34.6818C159.873 33.7727 160.038 32.9792 160.367 32.3011C160.701 31.6231 161.163 31.0966 161.754 30.7216C162.348 30.3466 163.04 30.1591 163.827 30.1591C164.615 30.1591 165.305 30.3466 165.896 30.7216C166.49 31.0966 166.952 31.6231 167.282 32.3011C167.615 32.9792 167.782 33.7727 167.782 34.6818C167.782 35.5833 167.615 36.3712 167.282 37.0455C166.952 37.7197 166.49 38.2443 165.896 38.6193C165.305 38.9943 164.615 39.1818 163.827 39.1818ZM163.827 37.9773C164.426 37.9773 164.918 37.8239 165.305 37.517C165.691 37.2102 165.977 36.8068 166.163 36.3068C166.348 35.8068 166.441 35.2652 166.441 34.6818C166.441 34.0985 166.348 33.5549 166.163 33.0511C165.977 32.5473 165.691 32.1402 165.305 31.8295C164.918 31.5189 164.426 31.3636 163.827 31.3636C163.229 31.3636 162.737 31.5189 162.35 31.8295C161.964 32.1402 161.678 32.5473 161.492 33.0511C161.307 33.5549 161.214 34.0985 161.214 34.6818C161.214 35.2652 161.307 35.8068 161.492 36.3068C161.678 36.8068 161.964 37.2102 162.35 37.517C162.737 37.8239 163.229 37.9773 163.827 37.9773ZM173.352 42.4545C172.704 42.4545 172.147 42.3712 171.681 42.2045C171.215 42.0417 170.827 41.8258 170.516 41.5568C170.21 41.2917 169.965 41.0076 169.783 40.7045L170.852 39.9545C170.973 40.1136 171.126 40.2955 171.312 40.5C171.497 40.7083 171.751 40.8883 172.073 41.0398C172.399 41.1951 172.825 41.2727 173.352 41.2727C174.056 41.2727 174.638 41.1023 175.096 40.7614C175.554 40.4205 175.783 39.8864 175.783 39.1591V37.3864H175.67C175.571 37.5455 175.431 37.7424 175.249 37.9773C175.071 38.2083 174.814 38.4148 174.477 38.5966C174.143 38.7746 173.692 38.8636 173.124 38.8636C172.42 38.8636 171.787 38.697 171.227 38.3636C170.67 38.0303 170.228 37.5455 169.903 36.9091C169.581 36.2727 169.42 35.5 169.42 34.5909C169.42 33.697 169.577 32.9186 169.891 32.2557C170.206 31.589 170.643 31.0739 171.204 30.7102C171.764 30.3428 172.412 30.1591 173.147 30.1591C173.715 30.1591 174.166 30.2538 174.499 30.4432C174.836 30.6288 175.094 30.8409 175.272 31.0795C175.454 31.3144 175.594 31.5076 175.692 31.6591H175.829V30.2727H177.124V39.25C177.124 40 176.954 40.6098 176.613 41.0795C176.276 41.553 175.821 41.8996 175.249 42.1193C174.681 42.3428 174.049 42.4545 173.352 42.4545ZM173.306 37.6591C173.844 37.6591 174.299 37.536 174.67 37.2898C175.041 37.0436 175.323 36.6894 175.516 36.2273C175.71 35.7652 175.806 35.2121 175.806 34.5682C175.806 33.9394 175.711 33.3845 175.522 32.9034C175.333 32.4223 175.052 32.0455 174.681 31.7727C174.31 31.5 173.852 31.3636 173.306 31.3636C172.738 31.3636 172.264 31.5076 171.886 31.7955C171.511 32.0833 171.228 32.4697 171.039 32.9545C170.853 33.4394 170.761 33.9773 170.761 34.5682C170.761 35.1742 170.855 35.7102 171.045 36.1761C171.238 36.6383 171.522 37.0019 171.897 37.267C172.276 37.5284 172.746 37.6591 173.306 37.6591ZM179.579 39V30.2727H180.874V31.5909H180.965C181.124 31.1591 181.412 30.8087 181.829 30.5398C182.246 30.2708 182.715 30.1364 183.238 30.1364C183.336 30.1364 183.46 30.1383 183.607 30.142C183.755 30.1458 183.867 30.1515 183.942 30.1591V31.5227C183.897 31.5114 183.793 31.4943 183.63 31.4716C183.471 31.4451 183.302 31.4318 183.124 31.4318C182.7 31.4318 182.321 31.5208 181.988 31.6989C181.658 31.8731 181.397 32.1155 181.204 32.4261C181.014 32.733 180.92 33.0833 180.92 33.4773V39H179.579ZM188.1 39.2045C187.547 39.2045 187.045 39.1004 186.594 38.892C186.144 38.6799 185.786 38.375 185.521 37.9773C185.255 37.5758 185.123 37.0909 185.123 36.5227C185.123 36.0227 185.221 35.6174 185.418 35.3068C185.615 34.9924 185.879 34.7462 186.208 34.5682C186.538 34.3902 186.901 34.2576 187.299 34.1705C187.701 34.0795 188.104 34.0076 188.509 33.9545C189.04 33.8864 189.469 33.8352 189.799 33.8011C190.132 33.7633 190.375 33.7008 190.526 33.6136C190.682 33.5265 190.759 33.375 190.759 33.1591V33.1136C190.759 32.553 190.606 32.1174 190.299 31.8068C189.996 31.4962 189.536 31.3409 188.918 31.3409C188.278 31.3409 187.776 31.4811 187.413 31.7614C187.049 32.0417 186.793 32.3409 186.646 32.6591L185.373 32.2045C185.6 31.6742 185.903 31.2614 186.282 30.9659C186.665 30.6667 187.081 30.4583 187.532 30.3409C187.987 30.2197 188.433 30.1591 188.873 30.1591C189.153 30.1591 189.475 30.1932 189.839 30.2614C190.206 30.3258 190.56 30.4602 190.901 30.6648C191.246 30.8693 191.532 31.178 191.759 31.5909C191.987 32.0038 192.1 32.5568 192.1 33.25V39H190.759V37.8182H190.691C190.6 38.0076 190.449 38.2102 190.237 38.4261C190.024 38.642 189.742 38.8258 189.39 38.9773C189.038 39.1288 188.608 39.2045 188.1 39.2045ZM188.305 38C188.835 38 189.282 37.8958 189.646 37.6875C190.013 37.4792 190.29 37.2102 190.475 36.8807C190.665 36.5511 190.759 36.2045 190.759 35.8409V34.6136C190.702 34.6818 190.577 34.7443 190.384 34.8011C190.195 34.8542 189.975 34.9015 189.725 34.9432C189.479 34.9811 189.238 35.0152 189.004 35.0455C188.772 35.072 188.585 35.0947 188.441 35.1136C188.093 35.1591 187.767 35.233 187.464 35.3352C187.165 35.4337 186.922 35.5833 186.737 35.7841C186.555 35.9811 186.464 36.25 186.464 36.5909C186.464 37.0568 186.636 37.4091 186.981 37.6477C187.329 37.8826 187.771 38 188.305 38ZM198.434 30.2727V31.4091H193.729V30.2727H198.434ZM195.138 39V29.0682C195.138 28.5682 195.256 28.1515 195.491 27.8182C195.726 27.4848 196.031 27.2348 196.406 27.0682C196.781 26.9015 197.176 26.8182 197.593 26.8182C197.923 26.8182 198.192 26.8447 198.4 26.8977C198.608 26.9508 198.763 27 198.866 27.0455L198.479 28.2045C198.411 28.1818 198.317 28.1534 198.195 28.1193C198.078 28.0852 197.923 28.0682 197.729 28.0682C197.286 28.0682 196.966 28.1799 196.769 28.4034C196.576 28.6269 196.479 28.9545 196.479 29.3864V39H195.138ZM202.631 39.2045C202.078 39.2045 201.576 39.1004 201.126 38.892C200.675 38.6799 200.317 38.375 200.052 37.9773C199.787 37.5758 199.654 37.0909 199.654 36.5227C199.654 36.0227 199.753 35.6174 199.95 35.3068C200.147 34.9924 200.41 34.7462 200.739 34.5682C201.069 34.3902 201.433 34.2576 201.83 34.1705C202.232 34.0795 202.635 34.0076 203.04 33.9545C203.571 33.8864 204.001 33.8352 204.33 33.8011C204.664 33.7633 204.906 33.7008 205.058 33.6136C205.213 33.5265 205.29 33.375 205.29 33.1591V33.1136C205.29 32.553 205.137 32.1174 204.83 31.8068C204.527 31.4962 204.067 31.3409 203.45 31.3409C202.809 31.3409 202.308 31.4811 201.944 31.7614C201.58 32.0417 201.325 32.3409 201.177 32.6591L199.904 32.2045C200.131 31.6742 200.434 31.2614 200.813 30.9659C201.196 30.6667 201.612 30.4583 202.063 30.3409C202.518 30.2197 202.965 30.1591 203.404 30.1591C203.684 30.1591 204.006 30.1932 204.37 30.2614C204.737 30.3258 205.092 30.4602 205.433 30.6648C205.777 30.8693 206.063 31.178 206.29 31.5909C206.518 32.0038 206.631 32.5568 206.631 33.25V39H205.29V37.8182H205.222C205.131 38.0076 204.98 38.2102 204.768 38.4261C204.556 38.642 204.273 38.8258 203.921 38.9773C203.569 39.1288 203.139 39.2045 202.631 39.2045ZM202.836 38C203.366 38 203.813 37.8958 204.177 37.6875C204.544 37.4792 204.821 37.2102 205.006 36.8807C205.196 36.5511 205.29 36.2045 205.29 35.8409V34.6136C205.234 34.6818 205.109 34.7443 204.915 34.8011C204.726 34.8542 204.506 34.9015 204.256 34.9432C204.01 34.9811 203.77 35.0152 203.535 35.0455C203.304 35.072 203.116 35.0947 202.972 35.1136C202.624 35.1591 202.298 35.233 201.995 35.3352C201.696 35.4337 201.453 35.5833 201.268 35.7841C201.086 35.9811 200.995 36.25 200.995 36.5909C200.995 37.0568 201.167 37.4091 201.512 37.6477C201.861 37.8826 202.302 38 202.836 38ZM209.079 39V30.2727H210.374V31.5909H210.465C210.624 31.1591 210.912 30.8087 211.329 30.5398C211.746 30.2708 212.215 30.1364 212.738 30.1364C212.836 30.1364 212.96 30.1383 213.107 30.142C213.255 30.1458 213.367 30.1515 213.442 30.1591V31.5227C213.397 31.5114 213.293 31.4943 213.13 31.4716C212.971 31.4451 212.802 31.4318 212.624 31.4318C212.2 31.4318 211.821 31.5208 211.488 31.6989C211.158 31.8731 210.897 32.1155 210.704 32.4261C210.514 32.733 210.42 33.0833 210.42 33.4773V39H209.079Z" fill="white"/>
<rect x="356.5" y="0.5" width="327" height="66" rx="23.5" fill="#D8DFE8"/>
<rect x="356.5" y="0.5" width="327" height="66" rx="23.5" stroke="#0A3871"/>
<path d="M465.961 39H462.37V27.3636H466.12C467.249 27.3636 468.215 27.5966 469.018 28.0625C469.821 28.5246 470.436 29.1894 470.864 30.0568C471.292 30.9205 471.506 31.9545 471.506 33.1591C471.506 34.3712 471.29 35.4148 470.859 36.2898C470.427 37.161 469.798 37.8314 468.972 38.3011C468.147 38.767 467.143 39 465.961 39ZM463.779 37.75H465.87C466.832 37.75 467.629 37.5644 468.262 37.1932C468.895 36.822 469.366 36.2936 469.677 35.608C469.987 34.9223 470.143 34.1061 470.143 33.1591C470.143 32.2197 469.989 31.411 469.683 30.733C469.376 30.0511 468.917 29.5284 468.308 29.1648C467.698 28.7973 466.938 28.6136 466.029 28.6136H463.779V37.75ZM477.347 39.1818C476.506 39.1818 475.781 38.9962 475.171 38.625C474.565 38.25 474.097 37.7273 473.768 37.0568C473.442 36.3826 473.279 35.5985 473.279 34.7045C473.279 33.8106 473.442 33.0227 473.768 32.3409C474.097 31.6553 474.556 31.1212 475.143 30.7386C475.734 30.3523 476.423 30.1591 477.211 30.1591C477.665 30.1591 478.114 30.2348 478.558 30.3864C479.001 30.5379 479.404 30.7841 479.768 31.125C480.131 31.4621 480.421 31.9091 480.637 32.4659C480.853 33.0227 480.961 33.7083 480.961 34.5227V35.0909H474.234V33.9318H479.597C479.597 33.4394 479.499 33 479.302 32.6136C479.109 32.2273 478.832 31.9223 478.472 31.6989C478.116 31.4754 477.696 31.3636 477.211 31.3636C476.677 31.3636 476.215 31.4962 475.825 31.7614C475.438 32.0227 475.141 32.3636 474.933 32.7841C474.724 33.2045 474.62 33.6553 474.62 34.1364V34.9091C474.62 35.5682 474.734 36.1269 474.961 36.5852C475.192 37.0398 475.512 37.3864 475.921 37.625C476.33 37.8598 476.806 37.9773 477.347 37.9773C477.7 37.9773 478.018 37.928 478.302 37.8295C478.59 37.7273 478.838 37.5758 479.046 37.375C479.254 37.1705 479.415 36.9167 479.529 36.6136L480.825 36.9773C480.688 37.4167 480.459 37.803 480.137 38.1364C479.815 38.4659 479.417 38.7235 478.944 38.9091C478.47 39.0909 477.938 39.1818 477.347 39.1818ZM489.183 32.2273L487.978 32.5682C487.902 32.3674 487.79 32.1723 487.643 31.983C487.499 31.7898 487.302 31.6307 487.052 31.5057C486.802 31.3807 486.482 31.3182 486.092 31.3182C485.558 31.3182 485.112 31.4413 484.756 31.6875C484.404 31.9299 484.228 32.2386 484.228 32.6136C484.228 32.947 484.349 33.2102 484.592 33.4034C484.834 33.5966 485.213 33.7576 485.728 33.8864L487.023 34.2045C487.804 34.3939 488.385 34.6837 488.768 35.0739C489.15 35.4602 489.342 35.9583 489.342 36.5682C489.342 37.0682 489.198 37.5152 488.91 37.9091C488.626 38.303 488.228 38.6136 487.717 38.8409C487.205 39.0682 486.611 39.1818 485.933 39.1818C485.042 39.1818 484.306 38.9886 483.722 38.6023C483.139 38.2159 482.77 37.6515 482.614 36.9091L483.887 36.5909C484.008 37.0606 484.237 37.4129 484.575 37.6477C484.915 37.8826 485.361 38 485.91 38C486.535 38 487.031 37.8674 487.398 37.6023C487.77 37.3333 487.955 37.0114 487.955 36.6364C487.955 36.3333 487.849 36.0795 487.637 35.875C487.425 35.6667 487.099 35.5114 486.66 35.4091L485.205 35.0682C484.406 34.8788 483.819 34.5852 483.444 34.1875C483.073 33.786 482.887 33.2841 482.887 32.6818C482.887 32.1894 483.025 31.7538 483.302 31.375C483.582 30.9962 483.963 30.6989 484.444 30.483C484.929 30.267 485.478 30.1591 486.092 30.1591C486.955 30.1591 487.633 30.3485 488.126 30.7273C488.622 31.1061 488.974 31.6061 489.183 32.2273ZM494.906 39.1818C494.087 39.1818 493.383 38.9886 492.792 38.6023C492.201 38.2159 491.746 37.6837 491.428 37.0057C491.11 36.3277 490.951 35.553 490.951 34.6818C490.951 33.7955 491.114 33.0133 491.44 32.3352C491.769 31.6534 492.228 31.1212 492.815 30.7386C493.406 30.3523 494.095 30.1591 494.883 30.1591C495.496 30.1591 496.049 30.2727 496.542 30.5C497.034 30.7273 497.438 31.0455 497.752 31.4545C498.067 31.8636 498.262 32.3409 498.337 32.8864H496.996C496.894 32.4886 496.667 32.1364 496.315 31.8295C495.966 31.5189 495.496 31.3636 494.906 31.3636C494.383 31.3636 493.924 31.5 493.531 31.7727C493.14 32.0417 492.835 32.4223 492.616 32.9148C492.4 33.4034 492.292 33.9773 492.292 34.6364C492.292 35.3106 492.398 35.8977 492.61 36.3977C492.826 36.8977 493.129 37.286 493.519 37.5625C493.913 37.839 494.375 37.9773 494.906 37.9773C495.254 37.9773 495.57 37.9167 495.854 37.7955C496.138 37.6742 496.379 37.5 496.576 37.2727C496.773 37.0455 496.913 36.7727 496.996 36.4545H498.337C498.262 36.9697 498.074 37.4337 497.775 37.8466C497.479 38.2557 497.087 38.5814 496.599 38.8239C496.114 39.0625 495.549 39.1818 494.906 39.1818ZM500.298 39V30.2727H501.593V31.5909H501.684C501.843 31.1591 502.131 30.8087 502.548 30.5398C502.964 30.2708 503.434 30.1364 503.957 30.1364C504.055 30.1364 504.178 30.1383 504.326 30.142C504.474 30.1458 504.585 30.1515 504.661 30.1591V31.5227C504.616 31.5114 504.512 31.4943 504.349 31.4716C504.19 31.4451 504.021 31.4318 503.843 31.4318C503.419 31.4318 503.04 31.5208 502.707 31.6989C502.377 31.8731 502.116 32.1155 501.923 32.4261C501.733 32.733 501.638 33.0833 501.638 33.4773V39H500.298ZM506.251 39V30.2727H507.592V39H506.251ZM506.933 28.8182C506.671 28.8182 506.446 28.7292 506.256 28.5511C506.071 28.3731 505.978 28.1591 505.978 27.9091C505.978 27.6591 506.071 27.4451 506.256 27.267C506.446 27.089 506.671 27 506.933 27C507.194 27 507.417 27.089 507.603 27.267C507.792 27.4451 507.887 27.6591 507.887 27.9091C507.887 28.1591 507.792 28.3731 507.603 28.5511C507.417 28.7292 507.194 28.8182 506.933 28.8182ZM510.048 42.2727V30.2727H511.343V31.6591H511.502C511.601 31.5076 511.737 31.3144 511.911 31.0795C512.089 30.8409 512.343 30.6288 512.673 30.4432C513.006 30.2538 513.457 30.1591 514.025 30.1591C514.76 30.1591 515.407 30.3428 515.968 30.7102C516.529 31.0777 516.966 31.5985 517.281 32.2727C517.595 32.947 517.752 33.7424 517.752 34.6591C517.752 35.5833 517.595 36.3845 517.281 37.0625C516.966 37.7367 516.531 38.2595 515.974 38.6307C515.417 38.9981 514.775 39.1818 514.048 39.1818C513.487 39.1818 513.038 39.089 512.701 38.9034C512.364 38.714 512.104 38.5 511.923 38.2614C511.741 38.0189 511.601 37.8182 511.502 37.6591H511.388V42.2727H510.048ZM511.366 34.6364C511.366 35.2955 511.462 35.8769 511.656 36.3807C511.849 36.8807 512.131 37.2727 512.502 37.5568C512.873 37.8371 513.328 37.9773 513.866 37.9773C514.426 37.9773 514.894 37.8295 515.269 37.5341C515.648 37.2348 515.932 36.8333 516.121 36.3295C516.315 35.822 516.411 35.2576 516.411 34.6364C516.411 34.0227 516.317 33.4697 516.127 32.9773C515.942 32.4811 515.659 32.089 515.281 31.8011C514.906 31.5095 514.434 31.3636 513.866 31.3636C513.32 31.3636 512.862 31.5019 512.491 31.7784C512.12 32.0511 511.839 32.4337 511.65 32.9261C511.46 33.4148 511.366 33.9848 511.366 34.6364ZM523.593 30.2727V31.4091H519.07V30.2727H523.593ZM520.388 28.1818H521.729V36.5C521.729 36.8788 521.784 37.1629 521.894 37.3523C522.008 37.5379 522.152 37.6629 522.326 37.7273C522.504 37.7879 522.692 37.8182 522.888 37.8182C523.036 37.8182 523.157 37.8106 523.252 37.7955C523.347 37.7765 523.423 37.7614 523.479 37.75L523.752 38.9545C523.661 38.9886 523.534 39.0227 523.371 39.0568C523.209 39.0947 523.002 39.1136 522.752 39.1136C522.373 39.1136 522.002 39.0322 521.638 38.8693C521.279 38.7064 520.979 38.4583 520.741 38.125C520.506 37.7917 520.388 37.3712 520.388 36.8636V28.1818ZM529.062 39.1818C528.274 39.1818 527.583 38.9943 526.988 38.6193C526.397 38.2443 525.935 37.7197 525.602 37.0455C525.272 36.3712 525.107 35.5833 525.107 34.6818C525.107 33.7727 525.272 32.9792 525.602 32.3011C525.935 31.6231 526.397 31.0966 526.988 30.7216C527.583 30.3466 528.274 30.1591 529.062 30.1591C529.85 30.1591 530.539 30.3466 531.13 30.7216C531.725 31.0966 532.187 31.6231 532.516 32.3011C532.85 32.9792 533.016 33.7727 533.016 34.6818C533.016 35.5833 532.85 36.3712 532.516 37.0455C532.187 37.7197 531.725 38.2443 531.13 38.6193C530.539 38.9943 529.85 39.1818 529.062 39.1818ZM529.062 37.9773C529.66 37.9773 530.153 37.8239 530.539 37.517C530.925 37.2102 531.211 36.8068 531.397 36.3068C531.583 35.8068 531.675 35.2652 531.675 34.6818C531.675 34.0985 531.583 33.5549 531.397 33.0511C531.211 32.5473 530.925 32.1402 530.539 31.8295C530.153 31.5189 529.66 31.3636 529.062 31.3636C528.463 31.3636 527.971 31.5189 527.585 31.8295C527.198 32.1402 526.912 32.5473 526.727 33.0511C526.541 33.5549 526.448 34.0985 526.448 34.6818C526.448 35.2652 526.541 35.8068 526.727 36.3068C526.912 36.8068 527.198 37.2102 527.585 37.517C527.971 37.8239 528.463 37.9773 529.062 37.9773ZM538.586 42.4545C537.938 42.4545 537.381 42.3712 536.915 42.2045C536.45 42.0417 536.061 41.8258 535.751 41.5568C535.444 41.2917 535.2 41.0076 535.018 40.7045L536.086 39.9545C536.207 40.1136 536.361 40.2955 536.546 40.5C536.732 40.7083 536.986 40.8883 537.308 41.0398C537.633 41.1951 538.059 41.2727 538.586 41.2727C539.29 41.2727 539.872 41.1023 540.33 40.7614C540.789 40.4205 541.018 39.8864 541.018 39.1591V37.3864H540.904C540.806 37.5455 540.665 37.7424 540.484 37.9773C540.306 38.2083 540.048 38.4148 539.711 38.5966C539.378 38.7746 538.927 38.8636 538.359 38.8636C537.654 38.8636 537.022 38.697 536.461 38.3636C535.904 38.0303 535.463 37.5455 535.137 36.9091C534.815 36.2727 534.654 35.5 534.654 34.5909C534.654 33.697 534.811 32.9186 535.126 32.2557C535.44 31.589 535.878 31.0739 536.438 30.7102C536.999 30.3428 537.647 30.1591 538.381 30.1591C538.95 30.1591 539.4 30.2538 539.734 30.4432C540.071 30.6288 540.328 30.8409 540.506 31.0795C540.688 31.3144 540.828 31.5076 540.927 31.6591H541.063V30.2727H542.359V39.25C542.359 40 542.188 40.6098 541.847 41.0795C541.51 41.553 541.056 41.8996 540.484 42.1193C539.915 42.3428 539.283 42.4545 538.586 42.4545ZM538.54 37.6591C539.078 37.6591 539.533 37.536 539.904 37.2898C540.275 37.0436 540.558 36.6894 540.751 36.2273C540.944 35.7652 541.04 35.2121 541.04 34.5682C541.04 33.9394 540.946 33.3845 540.756 32.9034C540.567 32.4223 540.287 32.0455 539.915 31.7727C539.544 31.5 539.086 31.3636 538.54 31.3636C537.972 31.3636 537.499 31.5076 537.12 31.7955C536.745 32.0833 536.463 32.4697 536.273 32.9545C536.088 33.4394 535.995 33.9773 535.995 34.5682C535.995 35.1742 536.09 35.7102 536.279 36.1761C536.472 36.6383 536.756 37.0019 537.131 37.267C537.51 37.5284 537.98 37.6591 538.54 37.6591ZM544.813 39V30.2727H546.109V31.5909H546.2C546.359 31.1591 546.647 30.8087 547.063 30.5398C547.48 30.2708 547.95 30.1364 548.472 30.1364C548.571 30.1364 548.694 30.1383 548.842 30.142C548.989 30.1458 549.101 30.1515 549.177 30.1591V31.5227C549.131 31.5114 549.027 31.4943 548.864 31.4716C548.705 31.4451 548.537 31.4318 548.359 31.4318C547.934 31.4318 547.556 31.5208 547.222 31.6989C546.893 31.8731 546.631 32.1155 546.438 32.4261C546.249 32.733 546.154 33.0833 546.154 33.4773V39H544.813ZM553.335 39.2045C552.781 39.2045 552.28 39.1004 551.829 38.892C551.378 38.6799 551.02 38.375 550.755 37.9773C550.49 37.5758 550.357 37.0909 550.357 36.5227C550.357 36.0227 550.456 35.6174 550.653 35.3068C550.85 34.9924 551.113 34.7462 551.442 34.5682C551.772 34.3902 552.136 34.2576 552.533 34.1705C552.935 34.0795 553.338 34.0076 553.744 33.9545C554.274 33.8864 554.704 33.8352 555.033 33.8011C555.367 33.7633 555.609 33.7008 555.761 33.6136C555.916 33.5265 555.994 33.375 555.994 33.1591V33.1136C555.994 32.553 555.84 32.1174 555.533 31.8068C555.23 31.4962 554.77 31.3409 554.153 31.3409C553.513 31.3409 553.011 31.4811 552.647 31.7614C552.283 32.0417 552.028 32.3409 551.88 32.6591L550.607 32.2045C550.835 31.6742 551.138 31.2614 551.516 30.9659C551.899 30.6667 552.316 30.4583 552.766 30.3409C553.221 30.2197 553.668 30.1591 554.107 30.1591C554.388 30.1591 554.71 30.1932 555.073 30.2614C555.441 30.3258 555.795 30.4602 556.136 30.6648C556.48 30.8693 556.766 31.178 556.994 31.5909C557.221 32.0038 557.335 32.5568 557.335 33.25V39H555.994V37.8182H555.925C555.835 38.0076 555.683 38.2102 555.471 38.4261C555.259 38.642 554.977 38.8258 554.624 38.9773C554.272 39.1288 553.842 39.2045 553.335 39.2045ZM553.539 38C554.069 38 554.516 37.8958 554.88 37.6875C555.247 37.4792 555.524 37.2102 555.71 36.8807C555.899 36.5511 555.994 36.2045 555.994 35.8409V34.6136C555.937 34.6818 555.812 34.7443 555.619 34.8011C555.429 34.8542 555.21 34.9015 554.96 34.9432C554.713 34.9811 554.473 35.0152 554.238 35.0455C554.007 35.072 553.819 35.0947 553.675 35.1136C553.327 35.1591 553.001 35.233 552.698 35.3352C552.399 35.4337 552.156 35.5833 551.971 35.7841C551.789 35.9811 551.698 36.25 551.698 36.5909C551.698 37.0568 551.871 37.4091 552.215 37.6477C552.564 37.8826 553.005 38 553.539 38ZM563.668 30.2727V31.4091H558.964V30.2727H563.668ZM560.373 39V29.0682C560.373 28.5682 560.49 28.1515 560.725 27.8182C560.96 27.4848 561.265 27.2348 561.64 27.0682C562.015 26.9015 562.411 26.8182 562.827 26.8182C563.157 26.8182 563.426 26.8447 563.634 26.8977C563.843 26.9508 563.998 27 564.1 27.0455L563.714 28.2045C563.646 28.1818 563.551 28.1534 563.43 28.1193C563.312 28.0852 563.157 28.0682 562.964 28.0682C562.521 28.0682 562.201 28.1799 562.004 28.4034C561.81 28.6269 561.714 28.9545 561.714 29.3864V39H560.373ZM567.866 39.2045C567.313 39.2045 566.811 39.1004 566.36 38.892C565.909 38.6799 565.551 38.375 565.286 37.9773C565.021 37.5758 564.888 37.0909 564.888 36.5227C564.888 36.0227 564.987 35.6174 565.184 35.3068C565.381 34.9924 565.644 34.7462 565.974 34.5682C566.303 34.3902 566.667 34.2576 567.065 34.1705C567.466 34.0795 567.87 34.0076 568.275 33.9545C568.805 33.8864 569.235 33.8352 569.565 33.8011C569.898 33.7633 570.14 33.7008 570.292 33.6136C570.447 33.5265 570.525 33.375 570.525 33.1591V33.1136C570.525 32.553 570.371 32.1174 570.065 31.8068C569.762 31.4962 569.301 31.3409 568.684 31.3409C568.044 31.3409 567.542 31.4811 567.178 31.7614C566.815 32.0417 566.559 32.3409 566.411 32.6591L565.138 32.2045C565.366 31.6742 565.669 31.2614 566.048 30.9659C566.43 30.6667 566.847 30.4583 567.298 30.3409C567.752 30.2197 568.199 30.1591 568.638 30.1591C568.919 30.1591 569.241 30.1932 569.604 30.2614C569.972 30.3258 570.326 30.4602 570.667 30.6648C571.012 30.8693 571.298 31.178 571.525 31.5909C571.752 32.0038 571.866 32.5568 571.866 33.25V39H570.525V37.8182H570.457C570.366 38.0076 570.214 38.2102 570.002 38.4261C569.79 38.642 569.508 38.8258 569.156 38.9773C568.803 39.1288 568.373 39.2045 567.866 39.2045ZM568.07 38C568.601 38 569.048 37.8958 569.411 37.6875C569.779 37.4792 570.055 37.2102 570.241 36.8807C570.43 36.5511 570.525 36.2045 570.525 35.8409V34.6136C570.468 34.6818 570.343 34.7443 570.15 34.8011C569.96 34.8542 569.741 34.9015 569.491 34.9432C569.245 34.9811 569.004 35.0152 568.769 35.0455C568.538 35.072 568.351 35.0947 568.207 35.1136C567.858 35.1591 567.532 35.233 567.229 35.3352C566.93 35.4337 566.688 35.5833 566.502 35.7841C566.32 35.9811 566.229 36.25 566.229 36.5909C566.229 37.0568 566.402 37.4091 566.746 37.6477C567.095 37.8826 567.536 38 568.07 38ZM574.313 39V30.2727H575.609V31.5909H575.7C575.859 31.1591 576.147 30.8087 576.563 30.5398C576.98 30.2708 577.45 30.1364 577.972 30.1364C578.071 30.1364 578.194 30.1383 578.342 30.142C578.489 30.1458 578.601 30.1515 578.677 30.1591V31.5227C578.631 31.5114 578.527 31.4943 578.364 31.4716C578.205 31.4451 578.037 31.4318 577.859 31.4318C577.434 31.4318 577.056 31.5208 576.722 31.6989C576.393 31.8731 576.131 32.1155 575.938 32.4261C575.749 32.733 575.654 33.0833 575.654 33.4773V39H574.313Z" fill="#0A3871"/>
</g>
<defs>
<filter id="filter0_d_2_223" x="0" y="0" width="688" height="75" filterUnits="userSpaceOnUse" color-interpolation-filters="sRGB">
<feFlood flood-opacity="0" result="BackgroundImageFix"/>
<feColorMatrix in="SourceAlpha" type="matrix" values="0 0 0 0 0 0 0 0 0 0 0 0 0 0 0 0 0 0 127 0" result="hardAlpha"/>
<feOffset dy="4"/>
<feGaussianBlur stdDeviation="2"/>
<feComposite in2="hardAlpha" operator="out"/>
<feColorMatrix type="matrix" values="0 0 0 0 0 0 0 0 0 0 0 0 0 0 0 0 0 0 0.25 0"/>
<feBlend mode="normal" in2="BackgroundImageFix" result="effect1_dropShadow_2_223"/>
<feBlend mode="normal" in="SourceGraphic" in2="effect1_dropShadow_2_223" result="shape"/>
</filter>
</defs>
</svg>
